<?xml version="1.0" encoding="iso-8859-1"?>
<!-- Generator: Adobe Illustrator 19.0.0, SVG Export Plug-In . SVG Version: 6.00 Build 0)  -->
<svg version="1.1" id="Capa_1" xmlns="http://www.w3.org/2000/svg" xmlns:xlink="http://www.w3.org/1999/xlink" x="0px" y="0px"
	 viewBox="0 0 512 512" style="enable-background:new 0 0 512 512;" xml:space="preserve">
<g>
	<g>
		<path d="M235.643,133.998H96c-5.523,0-10,4.477-10,10s4.477,10,10,10h139.643c5.523,0,10-4.477,10-10
			S241.166,133.998,235.643,133.998z"/>
	</g>
</g>
<g>
	<g>
		<path d="M423.07,136.93c-1.86-1.86-4.44-2.93-7.07-2.93s-5.21,1.07-7.07,2.93c-1.86,1.86-2.93,4.44-2.93,7.07s1.07,5.21,2.93,7.07
			S413.37,154,416,154s5.21-1.07,7.07-2.93c1.86-1.86,2.93-4.44,2.93-7.07S424.93,138.79,423.07,136.93z"/>
	</g>
</g>
<g>
	<g>
		<path d="M379,133.998h-95.151c-5.523,0-10,4.477-10,10s4.477,10,10,10H379c5.523,0,10-4.477,10-10S384.523,133.998,379,133.998z"
			/>
	</g>
</g>
<g>
	<g>
		<path d="M324.58,78H96c-5.523,0-10,4.477-10,10s4.477,10,10,10h228.58c5.523,0,10-4.477,10-10S330.103,78,324.58,78z"/>
	</g>
</g>
<g>
	<g>
		<path d="M416,78h-39.879c-5.523,0-10,4.477-10,10s4.477,10,10,10H416c5.523,0,10-4.477,10-10S421.523,78,416,78z"/>
	</g>
</g>
<g>
	<g>
		<path d="M416,245.985h-39.879c-5.523,0-10,4.477-10,10c0,5.523,4.477,10,10,10H416c5.523,0,10-4.477,10-10
			C426,250.462,421.523,245.985,416,245.985z"/>
	</g>
</g>
<g>
	<g>
		<path d="M336.506,246H96c-5.523,0-10,4.477-10,10c0,5.523,4.477,10,10,10h240.506c5.523,0,10-4.477,10-10
			C346.506,250.477,342.029,246,336.506,246z"/>
	</g>
</g>
<g>
	<g>
		<path d="M177.729,189.996H96c-5.523,0-10,4.477-10,10c0,5.523,4.477,10,10,10h81.729c5.523,0,10-4.477,10-10
			C187.729,194.473,183.252,189.996,177.729,189.996z"/>
	</g>
</g>
<g>
	<g>
		<path d="M416,189.996H251.506c-5.523,0-10,4.477-10,10c0,5.523,4.477,10,10,10H416c5.523,0,10-4.477,10-10
			C426,194.473,421.523,189.996,416,189.996z"/>
	</g>
</g>
<g>
	<g>
		<path d="M223.03,192.92c-1.86-1.86-4.44-2.92-7.07-2.92s-5.21,1.06-7.07,2.92c-1.86,1.87-2.93,4.44-2.93,7.08
			c0,2.63,1.07,5.21,2.93,7.07s4.44,2.93,7.07,2.93s5.21-1.07,7.07-2.93s2.93-4.44,2.93-7.07
			C225.96,197.36,224.89,194.79,223.03,192.92z"/>
	</g>
</g>
<g>
	<g>
		<path d="M256.947,333.998c-5.523,0-10,4.477-10,10s4.477,10,10,10h0.095c5.523,0,9.952-4.477,9.952-10
			S262.47,333.998,256.947,333.998z"/>
	</g>
</g>
<g>
	<g>
		<path d="M470,19.998H42c-23.159,0-42,18.841-42,42v282c0,27.57,22.43,50,50,50h152v38.004h-14c-23.159,0-42,18.841-42,42v8
			c0,5.523,4.477,10,10,10h200c5.523,0,10-4.477,10-10v-8c0-23.159-18.841-42-42-42h-14v-38.004h152c27.57,0,50-22.43,50-50v-282
			C512,38.839,493.159,19.998,470,19.998z M324,452.002c11.457,0,20.896,8.802,21.91,20H166.09c1.013-11.198,10.453-20,21.91-20h24
			h88H324z M222,432.002v-38.004h68v38.004H222z M492,343.998c0,16.542-13.458,30-30,30H300h-88H50c-16.542,0-30-13.458-30-30
			v-29.996h472V343.998z M492,294.002H20V61.998c0-12.131,9.869-22,22-22h428c12.131,0,22,9.869,22,22V294.002z"/>
	</g>
</g>
<g>
</g>
<g>
</g>
<g>
</g>
<g>
</g>
<g>
</g>
<g>
</g>
<g>
</g>
<g>
</g>
<g>
</g>
<g>
</g>
<g>
</g>
<g>
</g>
<g>
</g>
<g>
</g>
<g>
</g>
</svg>
